HIERARCHY
ROOT Haolin_28_06:Solving:Hips
{
	OFFSET 0.000000 0.000000 0.000000
	CHANNELS 6 Xposition Yposition Zposition Xrotation Yrotation Zrotation
	JOINT Haolin_28_06:Solving:Spine
	{
		OFFSET 0.000000 -12.181966 2.015561
		CHANNELS 6 Xposition Yposition Zposition Xrotation Yrotation Zrotation
		JOINT Haolin_28_06:Solving:Spine1
		{
			OFFSET 0.000000 -8.890296 1.567602
			CHANNELS 6 Xposition Yposition Zposition Xrotation Yrotation Zrotation
			JOINT Haolin_28_06:Solving:Spine2
			{
				OFFSET 0.000000 -8.993092 0.786796
				CHANNELS 6 Xposition Yposition Zposition Xrotation Yrotation Zrotation
				JOINT Haolin_28_06:Solving:Spine3
				{
					OFFSET 0.000000 -9.027443 0.000000
					CHANNELS 6 Xposition Yposition Zposition Xrotation Yrotation Zrotation
					JOINT Haolin_28_06:Solving:Neck
					{
						OFFSET 0.000000 -11.606712 -1.160669
						CHANNELS 6 Xposition Yposition Zposition Xrotation Yrotation Zrotation
						JOINT Haolin_28_06:Solving:Neck1
						{
							OFFSET 0.000000 -7.471592 -0.653680
							CHANNELS 6 Xposition Yposition Zposition Xrotation Yrotation Zrotation
							JOINT Haolin_28_06:Solving:Head
							{
								OFFSET 0.000000 -7.386181 -1.302382
								CHANNELS 6 Xposition Yposition Zposition Xrotation Yrotation Zrotation
								JOINT Haolin_28_06:Solving:HeadEnd
								{
									OFFSET 0.000000 -9.728081 0.000002
									CHANNELS 6 Xposition Yposition Zposition Xrotation Yrotation Zrotation
									End Site
									{
										OFFSET 0.000000 -9.728081 0.000002
									}
								}
							}
						}
					}
					JOINT Haolin_28_06:Solving:RightShoulder
					{
						OFFSET 0.000000 -8.290508 -5.270916
						CHANNELS 6 Xposition Yposition Zposition Xrotation Yrotation Zrotation
						JOINT Haolin_28_06:Solving:RightArm
						{
							OFFSET -19.261074 -0.000008 0.000000
							CHANNELS 6 Xposition Yposition Zposition Xrotation Yrotation Zrotation
							JOINT Haolin_28_06:Solving:RightForeArm
							{
								OFFSET -30.691700 -0.000011 0.000000
								CHANNELS 6 Xposition Yposition Zposition Xrotation Yrotation Zrotation
								JOINT Haolin_28_06:Solving:RightHand
								{
									OFFSET -20.216934 -0.000008 0.000000
									CHANNELS 6 Xposition Yposition Zposition Xrotation Yrotation Zrotation
									JOINT Haolin_28_06:Solving:RightHandThumb1
									{
										OFFSET -4.948814 2.881329 -3.679893
										CHANNELS 6 Xposition Yposition Zposition Xrotation Yrotation Zrotation
										End Site
										{
											OFFSET -7.039886 -0.000004 -7.104978
										}
									}
									JOINT Haolin_28_06:Solving:RightHandMiddle1
									{
										OFFSET -13.196846 -0.000004 0.084595
										CHANNELS 6 Xposition Yposition Zposition Xrotation Yrotation Zrotation
										End Site
										{
											OFFSET -10.002037 -0.000004 0.000000
										}
									}
								}
							}
						}
					}
					JOINT Haolin_28_06:Solving:LeftShoulder
					{
						OFFSET 0.000000 -8.290508 -5.270916
						CHANNELS 6 Xposition Yposition Zposition Xrotation Yrotation Zrotation
						JOINT Haolin_28_06:Solving:LeftArm
						{
							OFFSET 19.261074 -0.000008 0.000000
							CHANNELS 6 Xposition Yposition Zposition Xrotation Yrotation Zrotation
							JOINT Haolin_28_06:Solving:LeftForeArm
							{
								OFFSET 30.691700 -0.000011 0.000000
								CHANNELS 6 Xposition Yposition Zposition Xrotation Yrotation Zrotation
								JOINT Haolin_28_06:Solving:LeftHand
								{
									OFFSET 20.216934 -0.000008 0.000000
									CHANNELS 6 Xposition Yposition Zposition Xrotation Yrotation Zrotation
									JOINT Haolin_28_06:Solving:LeftHandThumb1
									{
										OFFSET 4.948814 2.881329 -3.679893
										CHANNELS 6 Xposition Yposition Zposition Xrotation Yrotation Zrotation
										End Site
										{
											OFFSET 7.039886 -0.000004 -7.104978
										}
									}
									JOINT Haolin_28_06:Solving:LeftHandMiddle1
									{
										OFFSET 13.196846 -0.000004 0.084595
										CHANNELS 6 Xposition Yposition Zposition Xrotation Yrotation Zrotation
										End Site
										{
											OFFSET 10.002037 -0.000004 0.000000
										}
									}
								}
							}
						}
					}
				}
			}
		}
	}
	JOINT Haolin_28_06:Solving:RightUpLeg
	{
		OFFSET -10.083070 0.000000 0.000000
		CHANNELS 6 Xposition Yposition Zposition Xrotation Yrotation Zrotation
		JOINT Haolin_28_06:Solving:RightLeg
		{
			OFFSET 0.000000 47.042522 -0.000008
			CHANNELS 6 Xposition Yposition Zposition Xrotation Yrotation Zrotation
			JOINT Haolin_28_06:Solving:RightFoot
			{
				OFFSET 0.000000 38.766415 -0.000006
				CHANNELS 6 Xposition Yposition Zposition Xrotation Yrotation Zrotation
				JOINT Haolin_28_06:Solving:RightForeFoot
				{
					OFFSET 0.000000 3.531212 -0.000000
					CHANNELS 6 Xposition Yposition Zposition Xrotation Yrotation Zrotation
					JOINT Haolin_28_06:Solving:RightToeBase
					{
						OFFSET 0.000000 0.000000 -13.829352
						CHANNELS 6 Xposition Yposition Zposition Xrotation Yrotation Zrotation
						JOINT Haolin_28_06:Solving:RightToeBaseEnd
						{
							OFFSET 0.000000 0.000000 -4.034167
							CHANNELS 6 Xposition Yposition Zposition Xrotation Yrotation Zrotation
							End Site
							{
								OFFSET 0.000000 -4.034164 0.000004
							}
						}
					}
				}
			}
		}
	}
	JOINT Haolin_28_06:Solving:LeftUpLeg
	{
		OFFSET 10.083070 0.000000 0.000000
		CHANNELS 6 Xposition Yposition Zposition Xrotation Yrotation Zrotation
		JOINT Haolin_28_06:Solving:LeftLeg
		{
			OFFSET 0.000000 47.042522 -0.000008
			CHANNELS 6 Xposition Yposition Zposition Xrotation Yrotation Zrotation
			JOINT Haolin_28_06:Solving:LeftFoot
			{
				OFFSET 0.000000 38.766415 -0.000006
				CHANNELS 6 Xposition Yposition Zposition Xrotation Yrotation Zrotation
				JOINT Haolin_28_06:Solving:LeftForeFoot
				{
					OFFSET 0.000000 3.531212 -0.000000
					CHANNELS 6 Xposition Yposition Zposition Xrotation Yrotation Zrotation
					JOINT Haolin_28_06:Solving:LeftToeBase
					{
						OFFSET 0.000000 0.000000 -13.829352
						CHANNELS 6 Xposition Yposition Zposition Xrotation Yrotation Zrotation
						JOINT Haolin_28_06:Solving:LeftToeBaseEnd
						{
							OFFSET 0.000000 0.000000 -4.855067
							CHANNELS 6 Xposition Yposition Zposition Xrotation Yrotation Zrotation
							End Site
							{
								OFFSET 0.000000 -4.855064 0.000004
							}
						}
					}
				}
			}
		}
	}
}
MOTION
Frames: 5
Frame Time: 0.041667
-32.449585 -92.606750 -92.964233 82.210664 -0.521423 -1.153041 0.000007 -12.181943 2.015554 19.554736 -0.979332 -4.953837 0.000000 -8.890302 1.567590 1.528271 -0.080645 -0.641665 -0.000000 -8.993108 0.786823 0.948962 -3.463400 0.798917 0.000005 -9.027449 0.000000 3.471935 -1.538784 2.730900 -0.000004 -11.606713 -1.160700 -0.356125 2.074386 -0.905474 0.000003 -7.471560 -0.653696 4.293941 1.906383 -0.070897 -0.000003 -7.386183 -1.302347 10.846010 0.125946 -0.061514 -0.000002 -9.728088 0.000037 0.000002 0.000000 -0.000000 -0.000010 -8.290524 -5.270946 -0.000012 19.960087 9.426215 -19.261082 -0.000013 -0.000012 -20.519744 -57.166518 -88.980447 -30.691690 -0.000005 -0.000001 -15.637313 -18.526851 -5.082523 -20.216909 -0.000010 0.000017 1.115134 -11.672863 5.495480 -4.948809 2.881327 -3.679873 -0.000000 -0.000005 0.000007 -13.196856 -0.000004 0.084604 -0.000001 -0.000004 0.000005 -0.000008 -8.290531 -5.270946 -0.000006 -12.478864 -7.202538 19.261080 -0.000033 -0.000002 -12.882054 32.669061 88.246338 30.691713 -0.000017 -0.000016 0.871700 30.541317 -0.442975 20.216957 -0.000010 0.000000 0.107364 0.638878 -9.539823 4.948802 2.881328 -3.679879 0.000001 0.000002 -0.000006 13.196829 -0.000008 0.084599 -0.000001 0.000002 -0.000003 -10.083071 0.000028 -0.000006 17.053859 21.040958 -6.655877 -0.000001 47.042538 0.000000 7.914677 -0.000001 -0.000000 0.000013 38.766407 -0.000005 -6.939419 6.223738 0.023297 0.000009 3.531219 0.000001 -0.000004 0.000003 -0.000001 0.000009 -0.000011 -13.829351 -18.721313 0.000001 0.000000 0.000006 0.000015 -4.034167 -0.000001 0.000005 0.000000 10.083076 0.000009 -0.000007 -13.913544 -9.655564 -0.918138 -0.000001 47.042530 0.000009 29.130279 -0.000002 -0.000002 0.000002 38.766399 0.000007 1.202766 -10.237967 7.615688 -0.000004 3.531212 -0.000011 -0.000001 -0.000003 0.000002 -0.000004 -0.000002 -13.829361 -1.268612 -0.000000 0.000000 0.000001 -0.000008 -4.855071 -0.000001 -0.000001 -0.000001 
-32.525166 -92.332809 -92.911774 82.359732 -0.450087 -1.173061 0.000003 -12.181993 2.015568 19.585209 -0.983065 -4.892723 -0.000001 -8.890268 1.567578 1.524116 -0.087898 -0.614879 0.000001 -8.993088 0.786812 0.937232 -3.551241 0.826573 0.000005 -9.027411 0.000013 3.463452 -1.566820 2.778754 -0.000009 -11.606711 -1.160676 -0.443247 2.041724 -0.878601 0.000001 -7.471610 -0.653674 4.287897 1.888789 -0.072541 0.000001 -7.386223 -1.302342 10.864911 0.125125 -0.060541 0.000002 -9.728073 0.000011 0.000001 0.000000 -0.000000 0.000000 -8.290527 -5.270910 -0.000013 19.893691 9.427257 -19.261082 -0.000017 -0.000001 -20.753323 -57.709546 -89.470233 -30.691708 -0.000002 -0.000011 -15.695336 -18.626797 -5.128661 -20.216902 -0.000010 0.000006 1.111552 -11.730610 5.451442 -4.948776 2.881325 -3.679886 0.000003 0.000002 0.000000 -13.196841 -0.000014 0.084583 0.000004 0.000001 -0.000003 0.000001 -8.290527 -5.270910 -0.000009 -12.466577 -7.162784 19.261080 0.000002 0.000003 -12.716727 32.614276 88.186977 30.691668 -0.000005 0.000020 0.639365 30.185977 -0.321479 20.216944 -0.000021 0.000001 0.101556 0.599649 -9.612950 4.948841 2.881325 -3.679868 0.000002 -0.000002 -0.000006 13.196863 -0.000015 0.084595 0.000000 -0.000001 0.000003 -10.083072 -0.000030 0.000005 17.081058 20.923946 -6.679469 0.000018 47.042526 -0.000019 7.914896 0.000005 -0.000000 -0.000005 38.766430 -0.000029 -7.107334 6.292623 0.077781 0.000017 3.531212 -0.000013 -0.000001 -0.000001 -0.000001 0.000028 0.000018 -13.829373 -18.994548 -0.000002 -0.000001 0.000009 -0.000015 -4.034170 0.000001 0.000004 -0.000000 10.083075 -0.000030 0.000014 -14.101842 -10.552536 -0.673749 -0.000004 47.042530 0.000001 27.973945 -0.000002 -0.000001 0.000002 38.766415 -0.000010 1.544235 -9.949017 7.955583 0.000007 3.531220 0.000003 0.000000 0.000001 0.000000 0.000002 0.000004 -13.829348 -0.986551 0.000000 0.000001 0.000002 -0.000000 -4.855082 -0.000001 0.000003 0.000000 
-32.599873 -92.056602 -92.864212 82.511608 -0.389187 -1.207556 -0.000006 -12.181945 2.015559 19.605957 -0.970835 -4.814051 0.000004 -8.890285 1.567599 1.530685 -0.095086 -0.589251 -0.000008 -8.993123 0.786788 0.945453 -3.640154 0.859784 0.000006 -9.027430 -0.000019 3.442999 -1.591969 2.826769 0.000002 -11.606690 -1.160681 -0.514280 2.001059 -0.853718 0.000004 -7.471584 -0.653686 4.266457 1.883321 -0.071853 -0.000007 -7.386179 -1.302355 10.865351 0.124664 -0.064864 0.000002 -9.728119 0.000037 0.000002 -0.000000 0.000001 -0.000005 -8.290478 -5.270955 -0.000013 19.850347 9.406187 -19.261068 0.000015 0.000003 -20.989472 -58.318484 -89.944685 -30.691668 -0.000027 0.000001 -15.872542 -18.755174 -5.223583 -20.216928 -0.000019 -0.000003 1.120772 -11.787353 5.470447 -4.948829 2.881342 -3.679876 0.000001 -0.000000 0.000001 -13.196851 0.000018 0.084598 -0.000010 0.000002 0.000003 -0.000004 -8.290482 -5.270955 -0.000005 -12.465023 -7.116763 19.261068 0.000008 0.000004 -12.554640 32.588994 88.093348 30.691677 -0.000011 -0.000008 0.345187 29.864370 -0.171880 20.216938 -0.000015 -0.000015 0.099272 0.580225 -9.709323 4.948811 2.881335 -3.679867 0.000003 -0.000002 0.000005 13.196865 -0.000001 0.084603 0.000002 0.000003 0.000005 -10.083060 0.000040 0.000006 17.109211 20.920145 -6.685102 0.000001 47.042526 0.000014 7.927144 0.000004 -0.000002 -0.000013 38.766403 -0.000016 -7.228593 6.222233 0.192721 -0.000007 3.531212 0.000012 0.000000 0.000001 -0.000001 0.000012 0.000025 -13.829357 -19.262399 0.000006 0.000000 0.000003 0.000000 -4.034163 0.000001 0.000004 0.000000 10.083067 0.000023 -0.000008 -14.313239 -11.450067 -0.400995 0.000006 47.042515 0.000005 26.863692 -0.000000 -0.000003 -0.000002 38.766430 -0.000008 2.119630 -9.739361 8.148061 0.000001 3.531204 0.000015 0.000000 0.000000 0.000002 0.000006 0.000005 -13.829334 -1.117019 0.000003 0.000001 0.000000 -0.000000 -4.855067 -0.000000 0.000003 -0.000001 
-32.679729 -91.766365 -92.803749 82.673101 -0.307520 -1.218496 -0.000010 -12.181961 2.015559 19.634041 -0.977538 -4.742019 -0.000001 -8.890291 1.567601 1.523478 -0.102070 -0.556757 0.000000 -8.993115 0.786810 0.921511 -3.722145 0.882281 0.000000 -9.027415 0.000013 3.441336 -1.611771 2.865817 -0.000010 -11.606720 -1.160675 -0.582299 1.944219 -0.811668 0.000002 -7.471599 -0.653684 4.230706 1.867074 -0.071864 0.000008 -7.386183 -1.302363 10.877231 0.123674 -0.071941 -0.000003 -9.728119 0.000010 0.000008 -0.000000 -0.000000 0.000001 -8.290508 -5.270902 -0.000015 19.814667 9.429389 -19.261082 0.000035 -0.000014 -21.245817 -58.933577 -90.463643 -30.691687 -0.000021 0.000010 -16.072543 -18.946207 -5.344216 -20.216927 -0.000008 0.000011 1.133890 -11.812352 5.522649 -4.948802 2.881341 -3.679890 0.000001 0.000003 0.000006 -13.196868 -0.000001 0.084569 0.000004 -0.000005 0.000001 -0.000002 -8.290512 -5.270901 -0.000007 -12.499274 -7.094736 19.261066 -0.000006 0.000011 -12.392277 32.487627 88.021324 30.691706 -0.000012 0.000010 0.137562 29.573940 -0.067889 20.216965 -0.000013 0.000020 0.098430 0.572257 -9.759946 4.948804 2.881330 -3.679878 -0.000001 0.000007 -0.000003 13.196873 -0.000007 0.084583 0.000005 -0.000001 0.000005 -10.083071 0.000003 -0.000000 17.154486 20.826404 -6.699660 0.000003 47.042519 0.000005 7.897465 0.000005 0.000000 -0.000014 38.766415 -0.000016 -7.393532 6.139967 0.265911 0.000006 3.531219 0.000007 0.000002 -0.000003 -0.000001 -0.000001 0.000011 -13.829372 -19.478141 0.000001 -0.000001 -0.000002 0.000008 -4.034155 0.000000 0.000001 -0.000000 10.083067 0.000017 -0.000001 -14.490127 -12.315565 -0.160630 0.000003 47.042519 0.000001 25.681786 0.000002 -0.000001 -0.000004 38.766438 -0.000014 2.629315 -9.569627 8.366637 0.000004 3.531212 0.000008 -0.000000 -0.000000 -0.000001 -0.000001 0.000009 -13.829362 -1.062021 0.000003 -0.000001 -0.000002 0.000007 -4.855078 -0.000001 -0.000002 0.000003 
-32.761166 -91.471779 -92.744919 82.843965 -0.233753 -1.230589 -0.000004 -12.181943 2.015579 19.644787 -0.974998 -4.663995 0.000001 -8.890286 1.567589 1.514123 -0.109200 -0.527468 0.000006 -8.993095 0.786794 0.912533 -3.808116 0.918253 -0.000002 -9.027452 -0.000004 3.447008 -1.630865 2.910462 0.000001 -11.606703 -1.160625 -0.667635 1.894249 -0.785159 -0.000002 -7.471608 -0.653691 4.215181 1.854893 -0.079160 -0.000002 -7.386158 -1.302388 10.896340 0.122961 -0.075387 0.000002 -9.728119 0.000003 0.000010 0.000000 0.000000 0.000000 -8.290520 -5.270865 -0.000009 19.734908 9.434957 -19.261084 -0.000009 0.000008 -21.509946 -59.352930 -90.966754 -30.691677 -0.000015 0.000011 -16.016799 -19.100045 -5.366169 -20.216904 -0.000002 -0.000004 1.103480 -11.818234 5.372697 -4.948772 2.881320 -3.679872 -0.000006 -0.000003 0.000005 -13.196830 -0.000006 0.084588 -0.000004 -0.000001 0.000001 0.000001 -8.290527 -5.270865 -0.000008 -12.499793 -7.085085 19.261078 0.000014 -0.000023 -12.217674 32.396854 87.900020 30.691675 -0.000005 -0.000004 -0.195603 29.331971 0.095827 20.216932 -0.000023 -0.000006 0.101535 0.588246 -9.793677 4.948851 2.881320 -3.679881 -0.000001 0.000010 -0.000001 13.196886 -0.000012 0.084609 -0.000003 0.000004 0.000003 -10.083072 0.000019 0.000015 17.198705 20.731016 -6.725209 0.000011 47.042522 -0.000001 7.862580 0.000004 -0.000000 -0.000003 38.766418 -0.000007 -7.557295 6.134510 0.262541 -0.000004 3.531212 0.000001 0.000001 0.000001 -0.000001 0.000014 0.000006 -13.829368 -19.569450 0.000001 -0.000000 0.000003 -0.000015 -4.034163 0.000000 0.000001 -0.000000 10.083070 0.000027 0.000000 -14.664442 -13.177039 0.086645 -0.000007 47.042526 0.000006 24.513694 -0.000001 -0.000002 -0.000004 38.766415 -0.000002 3.199463 -9.427854 8.691155 -0.000006 3.531212 0.000002 -0.000000 -0.000001 -0.000001 0.000003 0.000005 -13.829329 -1.025935 -0.000003 -0.000000 0.000003 0.000000 -4.855069 0.000001 0.000001 0.000001 
